<svg width="512" height="512" viewBox="0 0 512 512" fill="none" xmlns="http://www.w3.org/2000/svg">
  <defs>
    <linearGradient id="bg" x1="72" y1="64" x2="436" y2="452" gradientUnits="userSpaceOnUse">
      <stop stop-color="#14294A"/>
      <stop offset="1" stop-color="#08101B"/>
    </linearGradient>
    <linearGradient id="route" x1="118" y1="374" x2="402" y2="154" gradientUnits="userSpaceOnUse">
      <stop stop-color="#66D9FF"/>
      <stop offset="1" stop-color="#FFD76A"/>
    </linearGradient>
    <filter id="glow" x="72" y="84" width="368" height="328" filterUnits="userSpaceOnUse" color-interpolation-filters="sRGB">
      <feGaussianBlur stdDeviation="18" result="blur"/>
      <feBlend in="SourceGraphic" in2="blur" mode="screen"/>
    </filter>
  </defs>
  <rect x="24" y="24" width="464" height="464" rx="116" fill="url(#bg)"/>
  <rect x="24" y="24" width="464" height="464" rx="116" stroke="#EDF3FF" stroke-opacity="0.12" stroke-width="2"/>
  <path d="M132 116H380" stroke="#20385F" stroke-width="12" stroke-linecap="round" opacity="0.7"/>
  <path d="M132 202H380" stroke="#20385F" stroke-width="12" stroke-linecap="round" opacity="0.7"/>
  <path d="M132 288H304" stroke="#20385F" stroke-width="12" stroke-linecap="round" opacity="0.7"/>
  <path d="M132 374H282" stroke="#20385F" stroke-width="12" stroke-linecap="round" opacity="0.7"/>
  <g filter="url(#glow)">
    <path d="M118 374L214 278L278 278L334 222L402 154" stroke="url(#route)" stroke-width="26" stroke-linecap="round" stroke-linejoin="round"/>
  </g>
  <rect x="100" y="356" width="36" height="36" rx="10" fill="#66D9FF"/>
  <rect x="196" y="260" width="36" height="36" rx="10" fill="#66D9FF"/>
  <rect x="260" y="260" width="36" height="36" rx="10" fill="#66D9FF"/>
  <rect x="316" y="204" width="36" height="36" rx="10" fill="#66D9FF"/>
  <path d="M406 116L444 146L406 176L368 146L406 116Z" fill="#FFD76A"/>
  <path d="M384 146H418" stroke="#08101B" stroke-width="10" stroke-linecap="round"/>
  <path d="M406 124V168" stroke="#08101B" stroke-width="10" stroke-linecap="round"/>
  <path d="M342 126V198" stroke="#EDF3FF" stroke-width="12" stroke-linecap="round"/>
  <path d="M342 126L398 146L342 168V126Z" fill="#FF69C7"/>
</svg>
