<svg width="1200" height="630" viewBox="0 0 1200 630" fill="none" xmlns="http://www.w3.org/2000/svg">
  <defs>
    <linearGradient id="bg" x1="116" y1="78" x2="1052" y2="582" gradientUnits="userSpaceOnUse">
      <stop stop-color="#13233E"/>
      <stop offset="1" stop-color="#08101B"/>
    </linearGradient>
    <linearGradient id="panel" x1="112" y1="110" x2="1088" y2="542" gradientUnits="userSpaceOnUse">
      <stop stop-color="#FFFFFF" stop-opacity="0.08"/>
      <stop offset="1" stop-color="#FFFFFF" stop-opacity="0.02"/>
    </linearGradient>
  </defs>
  <rect width="1200" height="630" fill="#08101B"/>
  <circle cx="139" cy="100" r="248" fill="#66D9FF" fill-opacity="0.12"/>
  <circle cx="1042" cy="562" r="188" fill="#FFD76A" fill-opacity="0.1"/>
  <rect x="72" y="72" width="1056" height="486" rx="44" fill="url(#bg)"/>
  <rect x="72" y="72" width="1056" height="486" rx="44" stroke="#EDF3FF" stroke-opacity="0.1" stroke-width="2"/>
  <rect x="112" y="112" width="976" height="406" rx="30" fill="url(#panel)"/>
  <image href="logo-mark.svg" x="132" y="132" width="132" height="132"/>
  <text x="132" y="318" fill="#EDF3FF" font-family="Chakra Petch, Arial, sans-serif" font-size="72" font-weight="700">GD Route Planner</text>
  <text x="132" y="382" fill="#99ABC7" font-family="Chakra Petch, Arial, sans-serif" font-size="28" font-weight="500">Build an optimized Geometry Dash route from your current skill level to the top.</text>
  <g>
    <rect x="132" y="430" width="246" height="50" rx="25" fill="#66D9FF" fill-opacity="0.14" stroke="#66D9FF" stroke-opacity="0.28"/>
    <text x="165" y="463" fill="#EDF3FF" font-family="Chakra Petch, Arial, sans-serif" font-size="22" font-weight="700">Adaptive route optimizer</text>
  </g>
  <g>
    <rect x="398" y="430" width="196" height="50" rx="25" fill="#FFFFFF" fill-opacity="0.05" stroke="#EDF3FF" stroke-opacity="0.12"/>
    <text x="430" y="463" fill="#99ABC7" font-family="Chakra Petch, Arial, sans-serif" font-size="22" font-weight="700">Tool-style workflow</text>
  </g>
  <g opacity="0.72">
    <path d="M808 216H1020" stroke="#20385F" stroke-width="16" stroke-linecap="round"/>
    <path d="M808 300H1020" stroke="#20385F" stroke-width="16" stroke-linecap="round"/>
    <path d="M808 384H960" stroke="#20385F" stroke-width="16" stroke-linecap="round"/>
    <path d="M808 466H936" stroke="#20385F" stroke-width="16" stroke-linecap="round"/>
    <path d="M792 466L856 402L908 402L962 346L1022 286" stroke="#66D9FF" stroke-width="24" stroke-linecap="round" stroke-linejoin="round"/>
    <rect x="778" y="452" width="28" height="28" rx="8" fill="#66D9FF"/>
    <rect x="842" y="388" width="28" height="28" rx="8" fill="#66D9FF"/>
    <rect x="894" y="388" width="28" height="28" rx="8" fill="#66D9FF"/>
    <rect x="948" y="332" width="28" height="28" rx="8" fill="#66D9FF"/>
    <path d="M1030 236L1060 260L1030 284L1000 260L1030 236Z" fill="#FFD76A"/>
    <path d="M986 230V312" stroke="#EDF3FF" stroke-width="10" stroke-linecap="round"/>
    <path d="M986 230L1030 248L986 268V230Z" fill="#FF69C7"/>
  </g>
</svg>
